<svg width="51" height="32" viewBox="0 0 51 32" fill="none" xmlns="http://www.w3.org/2000/svg">
    <path
        d="M35.7647 12.1167V0.0084851L31.4627 2.74917V16.4187H41V12.1167H35.7647ZM25.3874 11.3022C24.8098 11.809 24.0984 12.1387 23.3382 12.2517C22.5781 12.3647 21.8015 12.2563 21.1014 11.9394C20.4013 11.6225 19.8074 11.1105 19.3907 10.4648C18.9741 9.81904 18.7523 9.06691 18.7521 8.29843C18.7521 6.0923 20.5424 4.30195 22.7486 4.30195C24.1656 4.30195 25.4129 5.04015 26.1171 6.1517L29.7403 3.84375C28.9927 2.66627 27.9599 1.69662 26.7376 1.02468C25.5154 0.352751 24.1433 0.000297149 22.7486 0C19.6515 0 16.9532 1.70551 15.5277 4.21709C14.8031 2.93782 13.7523 1.87354 12.4823 1.13273C11.2123 0.391918 9.76867 0.00106245 8.29843 0C3.72496 0 0 3.72496 0 8.29843C0 12.8719 3.72496 16.5969 8.29843 16.5969C11.3955 16.5969 14.0938 14.8913 15.5192 12.3798C16.1258 13.4536 16.9642 14.3787 17.9735 15.0877C18.9827 15.7967 20.1373 16.2717 21.3532 16.4781C22.5692 16.6846 23.8158 16.6173 25.0025 16.2811C26.1892 15.945 27.2859 15.3485 28.213 14.535L29.8591 16.4187H30.1136V8.96875H23.3255L25.3874 11.3022ZM8.29843 12.3034C6.0923 12.3034 4.30195 10.513 4.30195 8.30691C4.30195 6.10079 6.0923 4.31043 8.29843 4.31043C10.5046 4.31043 12.3034 6.0923 12.3034 8.29843C12.3034 10.5046 10.5046 12.3034 8.29843 12.3034Z"
        fill="black" />
</svg>
