<?xml version="1.0" encoding="utf-8"?>
<!-- Generator: Adobe Illustrator 18.0.0, SVG Export Plug-In . SVG Version: 6.00 Build 0)  -->
<!DOCTYPE svg PUBLIC "-//W3C//DTD SVG 1.1//EN" "http://www.w3.org/Graphics/SVG/1.1/DTD/svg11.dtd">
<svg version="1.1" id="Layer_1" xmlns="http://www.w3.org/2000/svg" xmlns:xlink="http://www.w3.org/1999/xlink" x="0px" y="0px"
	 viewBox="0 0 503.4 319.4" width="396.998759479" height="251.889955856" enable-background="new 0 0 503.4 319.4" xml:space="preserve">
<rect x="0" y="0" fill="#7F3F98" width="6.9" height="302.3"/>
<path d="M75.5,9.2v4.1c2.1,0.1,3.6,0.5,4.4,0.7C79.5,11.7,77.8,9.8,75.5,9.2"/>
<path d="M73,6.4L73,6.4c0,1.4-0.3,2.3-0.7,2.9c0,0,0.7-0.2,1.6-0.2c0.6,0,1.5,0.2,1.6,0.2c-0.4-0.6-0.7-1.5-0.7-2.9v0
	c3.1,0,3.8,1.4,3.8,2.6h0.6V5.5V1.9h-0.6c0,1.2-0.8,2.6-3.8,2.6c0-3.1,1.4-3.8,2.6-3.8V0.1h-3.5h-3.5v0.6c1.2,0,2.6,0.8,2.6,3.8
	c-3.1,0-3.8-1.4-3.8-2.6h-0.6v3.5V9h0.6C69.2,7.8,69.9,6.4,73,6.4"/>
<path d="M72.3,9.2c-2.2,0.6-3.9,2.5-4.4,4.8c0.8-0.2,2.3-0.6,4.4-0.7V9.2z"/>
<path d="M76.1,110.8c0,1.4,1.2,2.6,2.6,2.6c1.4,0,2.6-1.2,2.6-2.6c0-1.4-1.2-2.6-2.6-2.6C77.3,108.2,76.1,109.4,76.1,110.8
	 M77.4,110.8c0-0.7,0.6-1.3,1.3-1.3c0.7,0,1.3,0.6,1.3,1.3c0,0.7-0.6,1.3-1.3,1.3C78,112.1,77.4,111.5,77.4,110.8"/>
<path d="M71.4,76.8c0-1.3-1-2.3-2.3-2.3l-0.4,0H56.1c-1.1,0-2,0.9-2,2c0,0.8,0.6,1.4,1.4,1.4c0.8,0,1.4-0.6,1.4-1.5
	c0.3,0.3,0.6,0.5,1,0.7c-0.2,0.8-0.4,1.9-0.5,3.2C57.3,80.2,57,80,56.7,80c-0.5,0-1,0.4-1,1c0,0.5,0.4,1,1,1c0.3,0,0.6-0.2,0.8-0.4
	c0,0.7,0,1.4,0.1,2.2c-0.2-0.1-0.4-0.2-0.6-0.2c-0.5,0-1,0.4-1,1c0,0.5,0.4,1,1,1c0.3,0,0.7-0.2,0.8-0.5c0,0.1,0,0.2,0.1,0.3
	c0.2,0.6,0.4,1.2,0.6,1.7c-0.1-0.1-0.3-0.1-0.5-0.1c-0.5,0-1,0.4-1,1c0,0.5,0.4,1,1,1c0.5,0,0.9-0.4,1-0.8c0.3,0.6,0.7,1.2,1.2,1.8
	c-0.1,0-0.1,0-0.2,0c-0.5,0-1,0.4-1,1c0,0.5,0.4,1,1,1s1-0.4,1-1c0,0,0,0,0-0.1c1.5,1.5,3.4,2.8,5.7,3.7l-0.4,3c0,0,0.9,0.4,2.3,0.8
	c1.4,0.4,2.7,0.6,2.7,0.6L71.4,76.8z M59.7,78c0,0,0.1,0,0.2,0.1l7.1,14.4C58.1,88.6,59,81.4,59.7,78 M67.1,91.4l-6.5-13.1
	c0.4,0.1,0.8,0.1,1.2,0.1l5.6,11.3L67.1,91.4z M67.5,88.6l-5-10.2c0.4,0,0.7-0.1,1-0.2l4.2,8.6L67.5,88.6z M67.9,85.7l-3.8-7.6
	c0.3-0.1,0.6-0.2,0.9-0.4l3.1,6.2L67.9,85.7z M68.3,82.8l-2.7-5.4c0.3-0.2,0.6-0.4,0.8-0.6l2.1,4.2L68.3,82.8z M69.1,77.7l-0.3,2.2
	L67,76.4c0.2-0.1,0.4-0.1,0.6-0.1C68.4,76.3,69.2,77,69.1,77.7"/>
<path d="M62.8,19c0-0.8,0.7-1.5,1.5-1.5c0.8,0,1.5,0.7,1.5,1.5c0,0.9-0.7,1.5-1.5,1.5C63.5,20.5,62.8,19.8,62.8,19"/>
<path d="M42.9,29.6c0-0.8,0.7-1.5,1.5-1.5c0.9,0,1.5,0.7,1.5,1.5c0,0.9-0.7,1.5-1.5,1.5C43.6,31.1,42.9,30.4,42.9,29.6"/>
<path d="M42.1,25.7c0-0.9,0.7-1.5,1.5-1.5c0.8,0,1.5,0.7,1.5,1.5c0,0.8-0.7,1.5-1.5,1.5C42.8,27.2,42.1,26.5,42.1,25.7"/>
<path d="M42.5,21.7c0-0.8,0.7-1.5,1.5-1.5c0.9,0,1.5,0.7,1.5,1.5c0,0.8-0.7,1.5-1.5,1.5C43.2,23.3,42.5,22.6,42.5,21.7"/>
<path d="M44.6,18.4c0-0.8,0.7-1.5,1.5-1.5c0.9,0,1.5,0.7,1.5,1.5c0,0.8-0.7,1.5-1.5,1.5C45.2,19.9,44.6,19.2,44.6,18.4"/>
<path d="M47.8,16.1c0-0.8,0.7-1.5,1.5-1.5c0.8,0,1.5,0.7,1.5,1.5c0,0.9-0.7,1.5-1.5,1.5C48.4,17.6,47.8,16.9,47.8,16.1"/>
<path d="M51.6,15.4c0-0.8,0.7-1.5,1.5-1.5c0.9,0,1.5,0.7,1.5,1.5c0,0.8-0.7,1.5-1.5,1.5C52.3,16.9,51.6,16.2,51.6,15.4"/>
<path d="M55.5,16.2c0-0.8,0.7-1.5,1.5-1.5c0.9,0,1.5,0.7,1.5,1.5c0,0.8-0.7,1.5-1.5,1.5C56.2,17.7,55.5,17,55.5,16.2"/>
<path d="M59.2,17.6c0-0.8,0.7-1.5,1.5-1.5c0.9,0,1.5,0.7,1.5,1.5c0,0.9-0.7,1.5-1.5,1.5C59.9,19.2,59.2,18.5,59.2,17.6"/>
<path d="M85.1,19c0-0.8-0.7-1.5-1.5-1.5c-0.8,0-1.5,0.7-1.5,1.5c0,0.9,0.7,1.5,1.5,1.5C84.4,20.5,85.1,19.8,85.1,19"/>
<path d="M104.9,29.6c0-0.8-0.7-1.5-1.5-1.5c-0.9,0-1.5,0.7-1.5,1.5c0,0.9,0.7,1.5,1.5,1.5C104.3,31.1,104.9,30.4,104.9,29.6"/>
<path d="M105.8,25.7c0-0.9-0.7-1.5-1.5-1.5c-0.8,0-1.5,0.7-1.5,1.5c0,0.8,0.7,1.5,1.5,1.5C105.1,27.2,105.8,26.5,105.8,25.7"/>
<path d="M105.4,21.7c0-0.8-0.7-1.5-1.5-1.5s-1.5,0.7-1.5,1.5c0,0.8,0.7,1.5,1.5,1.5S105.4,22.6,105.4,21.7"/>
<path d="M103.3,18.4c0-0.8-0.7-1.5-1.5-1.5s-1.5,0.7-1.5,1.5c0,0.8,0.7,1.5,1.5,1.5S103.3,19.2,103.3,18.4"/>
<path d="M100.1,16.1c0-0.8-0.7-1.5-1.5-1.5c-0.9,0-1.5,0.7-1.5,1.5c0,0.9,0.7,1.5,1.5,1.5C99.4,17.6,100.1,16.9,100.1,16.1"/>
<path d="M96.2,15.4c0-0.8-0.7-1.5-1.5-1.5c-0.9,0-1.5,0.7-1.5,1.5c0,0.8,0.7,1.5,1.5,1.5C95.5,16.9,96.2,16.2,96.2,15.4"/>
<path d="M92.4,16.2c0-0.8-0.7-1.5-1.5-1.5c-0.9,0-1.5,0.7-1.5,1.5c0,0.8,0.7,1.5,1.5,1.5C91.7,17.7,92.4,17,92.4,16.2"/>
<path d="M88.7,17.6c0-0.8-0.7-1.5-1.5-1.5c-0.8,0-1.5,0.7-1.5,1.5c0,0.9,0.7,1.5,1.5,1.5C88,19.2,88.7,18.5,88.7,17.6"/>
<path d="M87.1,41c0-0.9-0.8-1.7-1.7-1.7c-0.9,0-1.7,0.8-1.7,1.7c0,0.9,0.8,1.7,1.7,1.7C86.3,42.7,87.1,42,87.1,41"/>
<path d="M76.1,51.3v19.4h17.2l0-19.4L76.1,51.3z M92.7,70.2H76.6V51.8h6.3h2.4h7.4V70.2z"/>
<path d="M78.2,52.5L78.2,52.5h-1v16v1h1H91h1v-1v-15v-1h-1h-5.5h-2.9H78.2z M91,53v0.5h0.5v15H91V69H78.2v-0.5h-0.5v-15h0.5V53H91z"
	/>
<path d="M90.3,57.4l-0.8,0.8c0,0,0,0,0,0c0,0-0.1,0-0.1,0.1l0,0l-1.5,1.4c-0.5,0.4-0.6,1.1-0.2,1.6c0,0,0.9,1.2,0.9,1.2
	c0.1,0.1,0.1,0.2,0.1,0.4c0,0.1-0.1,0.3-0.2,0.3c-0.1,0.1-0.2,0.1-0.4,0.1c-0.1,0-0.3-0.1-0.3-0.2c0,0-0.9-1.2-1.3-1.8v-1.7l2.1-2
	v-1.8l-0.7-0.7l0.9-0.9H85l-0.9,0.9v1c0.1-0.1,0.3-0.1,0.4-0.1c0.4,0,0.8,0.4,0.8,0.8c0,0.4-0.4,0.8-0.8,0.8c-0.1,0-0.3,0-0.4-0.1
	v1.2h-1.3l-1.5-2.1c0.2-0.2,0.3-0.5,0.3-0.8c0-0.6-0.5-1-1-1c-0.2,0-0.4,0.1-0.6,0.2v0.6v1v0.1c0,0,0,0,0.1,0l1.4,2l0.7,1h1.3H84
	l-0.9,0.9h-1.7c-0.1-0.4-0.5-0.6-0.9-0.6c-0.4,0-0.8,0.3-0.9,0.6c0,0.1-0.1,0.2-0.1,0.4c0,0.2,0.1,0.5,0.2,0.6h1.6h2.5l0.7,1h-1.6
	h-1.2v0l1.1,1.5l0.6,0.8h-1.4c-0.1-0.4-0.5-0.7-1-0.7c-0.4,0-0.8,0.3-1,0.7c0,0.1,0,0.2,0,0.3c0,0.3,0.1,0.5,0.3,0.7h1.5H84h1.2
	l-0.7-1l-0.6-0.8h1.6l0.6,0.8l0.7,1h2.1h0.3V67h-0.3c-0.1-0.4-0.5-0.7-1-0.7c-0.5,0-0.8,0.3-1,0.7c0,0.1,0,0.2,0,0.3
	c0,0.3,0.1,0.5,0.3,0.7l3,0v-2.1v-1h-1h-1l-1-1.3c0.2,0.2,0.4,0.4,0.7,0.4c0.3,0,0.6,0,0.9-0.2c0.3-0.2,0.4-0.5,0.5-0.8
	c0-0.3,0-0.6-0.2-0.9c0,0-0.9-1.2-0.9-1.2c-0.2-0.2-0.1-0.6,0.1-0.7c0,0,0.2-0.2,0.4-0.4c0.4,0.3,0.9,0.3,1.3,0
	c0.2-0.2,0.3-0.4,0.3-0.7v0l0,0L90.3,57.4z"/>
<polygon points="71.6,41 73.9,38.7 76.3,41 73.9,43.4 "/>
<path d="M60.8,41c0-0.9,0.8-1.7,1.7-1.7c0.9,0,1.7,0.8,1.7,1.7c0,0.9-0.8,1.7-1.7,1.7C61.5,42.7,60.8,42,60.8,41"/>
<path d="M92,84.6L92,84.6L92,84.6c0-0.2,0-0.3,0-0.5c0-0.7-0.5-1.2-1.2-1.2h-4.3c0-0.5-0.5-1-1-1c-0.3,0-0.5,0.1-0.7,0.3l-1.3,1.3
	h1.3c0,0,0,0,0,0h1.6h4.5c0.3,0,0.5,0.2,0.5,0.5c0,0.3-0.2,0.5-0.5,0.5v0H88v0h-5.6v-1.2l1.5-1.5H78l1.5,1.5v2.2l-2.4-1.9
	c0.2-0.2,0.3-0.5,0.3-0.8c0-0.6-0.5-1-1-1c-0.2,0-0.5,0.1-0.7,0.2v1.5v0v0.3l3.6,2.9l-1.7,0.5c-0.1-0.4-0.5-0.7-1-0.7
	c-0.6,0-1,0.5-1,1c0,0.2,0.1,0.5,0.2,0.6h1.2H78l9.2-2.9v1.4L86,87.4c-0.1-0.5-0.5-0.8-1-0.8c-0.6,0-1,0.5-1,1
	c0,0.2,0.1,0.5,0.2,0.6h1.1h1.2l1.4-0.7l0.9-0.4l-0.4-0.9l-0.2-0.4h3.4c0,0.1-0.1,0.3-0.1,0.4c-0.1,0.2-0.2,0.5-0.3,0.7
	c-0.2-0.2-0.5-0.3-0.8-0.3c-0.6,0-1,0.5-1,1c0,0.2,0.1,0.5,0.2,0.6h1.6h0.5c0.3-0.6,0.5-1.3,0.6-1.7c0.3-0.9,0.5-1.7,0.5-2
	C93,84.6,92,84.6,92,84.6 M80.9,84.8l-1-1h2L80.9,84.8z"/>
<path d="M92.2,77.2c0.1-0.2,0.1-0.3,0.1-0.5c0-0.7-0.5-1.2-1.2-1.2h-4.5c0-0.5-0.5-1-1-1c-0.3,0-0.5,0.1-0.7,0.3l-1.3,1.3h1.3
	c0,0,0,0,0,0h1.5h4.8c0.3,0,0.5,0.2,0.5,0.5c0,0.3-0.2,0.5-0.5,0.5H88h-5.6V76l1.5-1.5H78l1.5,1.5v2.2l-2.4-1.9
	c0.2-0.2,0.3-0.5,0.3-0.7c0-0.6-0.5-1-1-1c-0.2,0-0.5,0.1-0.7,0.2v1.5v0.3l3.6,2.9L77.7,80c-0.1-0.4-0.5-0.7-1-0.7c-0.6,0-1,0.5-1,1
	c0,0.2,0.1,0.5,0.2,0.7c0,0,1.6,0,1.6,0H78l9.2-2.9v1.5L86,80c-0.1-0.4-0.5-0.7-1-0.7c-0.6,0-1,0.5-1,1c0,0.2,0.1,0.5,0.2,0.7
	c0,0,1.6,0,1.6,0h0.5l2.3-0.7l1.1-0.4l-0.9-0.8l-0.6-0.6h4.1v1.1c-0.2-0.2-0.5-0.4-0.8-0.4c-0.6,0-1,0.5-1,1c0,0.2,0.1,0.5,0.2,0.7
	c0,0,1.6,0,1.6,0h1v-2.5v-0.5v-0.7H92.2z M80.9,77.3l-1-1h2L80.9,77.3z"/>
<path d="M88.3,90.3h-1.8c0-0.5-0.5-1-1-1c-0.3,0-0.5,0.1-0.7,0.3L83.5,91h1.3c0,0,0,0,0,0c0,0,1.6,0,1.6,0h2c0.3,0,0.5,0.2,0.5,0.5
	c0,0.3-0.2,0.5-0.5,0.5h-2.9h-3v-1.2l1.5-1.5H78l1.5,1.5v2.5l-2.4-2.2c0.2-0.2,0.4-0.5,0.4-0.8c0-0.6-0.5-1-1-1
	c-0.2,0-0.5,0.1-0.7,0.2v1.1v0.6l3.8,3.5l0.2-0.2l-2.4,2.9c-0.2-0.2-0.5-0.2-0.7-0.2c-0.6,0.1-1,0.6-0.9,1.1c0,0.2,0.1,0.4,0.2,0.6
	c0.4,0,0.9-0.1,1.7-0.2l2.7-3.2c0.4-0.1,0.7-0.3,1.1-0.4l1.1,1c-0.2,0.1-0.4,0.2-0.6,0.3c-0.3-0.2-0.7-0.3-1-0.2
	c-0.5,0.2-0.8,0.8-0.6,1.3c0.1,0.2,0.2,0.3,0.3,0.4c0,0,0.4-0.1,0.8-0.3c0.4-0.2,0.8-0.3,0.8-0.3c0,0,0,0,0,0
	c0.5-0.2,0.9-0.4,1.3-0.6v-1.2V94c0.7-0.4,1.3-0.8,1.8-1.3l1,0.9c-0.2,0.2-0.4,0.3-0.7,0.5c-0.3-0.2-0.7-0.2-1,0
	c-0.2,0.1-0.4,0.4-0.5,0.6c0,0.1,0,0.3,0,0.4c0,0.1,0.1,0.3,0.1,0.4c0.1,0.2,0.3,0.3,0.5,0.4c0.5-0.3,0.9-0.6,1.4-0.9
	c0.3-0.2,0.7-0.5,1-0.8c0.1-0.1,0.2-0.2,0.3-0.3v-1v-0.3h0.9c0.7,0,1.2-0.5,1.2-1.2C89.5,90.8,89,90.3,88.3,90.3 M80.3,94L80.3,94
	L80.3,94z M80.9,92.2l-1-1h2L80.9,92.2z"/>
<path d="M70.7,67.6c0.1-0.2,0.1-0.3,0.1-0.5c0-0.7-0.5-1.2-1.2-1.2h-4.5c0-0.5-0.5-1-1-1c-0.3,0-0.5,0.1-0.7,0.3l-1.3,1.3h1.3v0
	c0,0,1.5,0,1.6,0h4.8c0.3,0,0.5,0.2,0.5,0.5c0,0.3-0.2,0.5-0.5,0.5h-3.1v0h-5.6v-1.2l1.5-1.5h-5.9l1.5,1.5v2.2l-2.4-1.9
	c0.2-0.2,0.3-0.5,0.3-0.7c0-0.6-0.5-1-1-1c-0.3,0-0.5,0.1-0.7,0.2v1.5v0.3l3.6,2.9l-1.7,0.5c-0.1-0.4-0.5-0.7-1-0.7
	c-0.6,0-1,0.5-1,1c0,0.3,0.1,0.5,0.2,0.7c0,0,1.4,0,1.6,0l0.5,0l9.2-2.9v1.5l-1.2,0.4c-0.1-0.4-0.5-0.7-1-0.7c-0.6,0-1,0.5-1,1
	c0,0.3,0.1,0.5,0.2,0.7c0,0,1.4,0,1.6,0l0.5,0l2.3-0.7l1.1-0.3l-0.9-0.8l-0.6-0.6h4.1V70c-0.2-0.2-0.5-0.4-0.8-0.4c-0.6,0-1,0.5-1,1
	c0,0.3,0.1,0.5,0.2,0.7l1.6,0h1v-2.5v-1.3H70.7z M59.5,67.7l-1-1h2L59.5,67.7z"/>
<path d="M70.7,60.4c0.1-0.2,0.1-0.3,0.1-0.5c0-0.7-0.5-1.2-1.2-1.2h-4.5c0-0.5-0.5-1-1-1c-0.3,0-0.5,0.1-0.7,0.3l-1.3,1.3h1.3v0h1.5
	h4.8c0.3,0,0.5,0.2,0.5,0.5s-0.2,0.5-0.5,0.5h-3.1h-5.6v-1.2l1.5-1.5h-5.9l1.5,1.5v2.2l-2.4-1.9c0.2-0.2,0.3-0.5,0.3-0.7
	c0-0.6-0.5-1-1-1c-0.3,0-0.5,0.1-0.7,0.2v1.5v0.3l3.6,2.9l-1.7,0.5c-0.1-0.4-0.5-0.7-1-0.7c-0.6,0-1,0.5-1,1c0,0.2,0.1,0.5,0.2,0.7
	c0,0,1.6,0,1.6,0h0.5l9.2-2.9v1.5l-1.2,0.4c-0.1-0.4-0.5-0.7-1-0.7c-0.6,0-1,0.5-1,1c0,0.2,0.1,0.5,0.2,0.7h1.6h0.5l2.3-0.7l1.1-0.4
	l-0.9-0.8l-0.6-0.6h4.1v1.1c-0.2-0.2-0.5-0.4-0.8-0.4c-0.6,0-1,0.5-1,1c0,0.2,0.1,0.5,0.2,0.7h1.6h1v-2.5v-1.3H70.7z M59.5,60.6
	l-1-1h2L59.5,60.6z"/>
<path d="M70.7,53.3c0.1-0.2,0.1-0.3,0.1-0.5c0-0.7-0.5-1.2-1.2-1.2h-4.5c0-0.5-0.5-1-1-1c-0.3,0-0.5,0.1-0.7,0.3l-1.3,1.3h1.3
	c0,0,0,0,0,0s1.3,0,1.5,0h4.8c0.3,0,0.5,0.2,0.5,0.5c0,0.3-0.2,0.5-0.5,0.5v0h-3.1v0h-5.6v-1.2l1.5-1.5h-5.9l1.5,1.5v2.2l-2.4-1.9
	c0.2-0.2,0.3-0.5,0.3-0.7c0-0.6-0.5-1-1-1c-0.3,0-0.5,0.1-0.7,0.2v1.5v0.3l3.6,2.9L56.2,56c-0.1-0.4-0.5-0.7-1-0.7c-0.6,0-1,0.5-1,1
	c0,0.3,0.1,0.5,0.2,0.7c0,0,1.5,0,1.6,0h0.5l9.2-2.9v1.5L64.5,56c-0.1-0.4-0.5-0.7-1-0.7c-0.6,0-1,0.5-1,1c0,0.3,0.1,0.5,0.2,0.7
	c0,0,1.5,0,1.6,0h0.5l2.3-0.7l1.1-0.3l-0.9-0.8l-0.6-0.6h4.1v1.1c-0.2-0.2-0.5-0.4-0.8-0.4c-0.6,0-1,0.5-1,1c0,0.3,0.1,0.5,0.2,0.7
	l1.6,0h1v-2.5v-1.3H70.7z M59.5,53.4l-1-1h2L59.5,53.4z"/>
<path d="M102,71.5L102,71.5c0.7-0.2,1-0.9,0.8-1.5c-0.1-0.3-0.3-0.6-0.6-0.7c-0.3-0.2-0.6-0.2-0.9-0.1c-0.3,0.1-0.6,0.3-0.7,0.6
	c-0.2,0.3-0.2,0.6-0.1,0.9C100.7,71.3,101.4,71.7,102,71.5"/>
<path d="M98.5,74.3l0.2,1.1c0,0,4-0.6,4-0.6c0.1,0,4,2,4,2l-0.2-1.4c0,0-2.6-1.3-2.8-1.4c0.2-0.2,2.3-2.1,2.3-2.1l-0.2-1.4l-0.1,0.1
	c0,0-3.1,2.9-3.2,3C102.5,73.7,98.5,74.3,98.5,74.3"/>
<path d="M101.6,78.1c0,0.3,0.1,0.6,0.4,0.9c0.2,0.2,0.5,0.4,0.9,0.3c0.3,0,0.6-0.1,0.9-0.4c0.2-0.2,0.3-0.5,0.3-0.9
	c0-0.3-0.1-0.6-0.4-0.9c-0.2-0.2-0.5-0.4-0.9-0.4C102.2,76.9,101.6,77.4,101.6,78.1"/>
<path d="M98.9,80.1l-0.1,1.1c0,0,3.1,0.4,3.3,0.5c0,0.1-0.1,0.9-0.1,0.9c0,0.2,0,0.3,0,0.5c0,0.5,0.1,1,0.4,1.4
	c0.3,0.4,0.8,0.7,1.5,0.8c1.4,0.2,2.4-0.5,2.6-1.9l0.3-2.2L98.9,80.1L98.9,80.1z M105.3,82.1c0,0.1-0.1,1.1-0.1,1.1
	c-0.1,1-0.9,1-1.2,0.9c-0.6-0.1-1-0.5-1-1c0-0.1,0-0.1,0-0.2c0,0,0.1-0.8,0.1-1C103.3,81.8,105.1,82.1,105.3,82.1"/>
<path d="M98.1,84.7l-1.3,3.8l1.1,0.4c0,0,0.9-2.7,0.9-2.8c0.1,0.1,1.9,0.6,2.1,0.7c-0.1,0.2-0.9,2.6-0.9,2.6l1.1,0.4
	c0,0,0.8-2.5,0.9-2.6c0.1,0.1,1.9,0.6,2,0.7c-0.1,0.2-0.9,2.7-0.9,2.7l1.1,0.4l1.3-3.8L98.1,84.7L98.1,84.7z"/>
<path d="M96.6,89.2L96.1,90c0,0,4.4,2.8,4.8,3.1c-0.5,0-7.1,0.6-7.1,0.6l-0.5,0.8l6.6,4.2l0.6-0.9c0,0-4.4-2.8-4.8-3.1
	c0.5,0,7.2-0.7,7.2-0.7l0.5-0.8L96.6,89.2L96.6,89.2z"/>
<path d="M94,98.6c-0.8,0.1-1.5,0.3-2-0.2c-0.2-0.2-0.4-0.8,0.1-1.3c0.5-0.5,1.2-0.6,2-0.5l0.3,0l-1.2-1.2h0
	c-0.8,0.1-1.4,0.3-1.9,0.9c-0.4,0.4-0.6,0.9-0.6,1.4c0,0.6,0.2,1.1,0.7,1.6c1,1,2.1,0.8,3.1,0.6c0.7-0.2,1.3-0.3,1.8,0.1
	c0.1,0.2,0.2,0.3,0.2,0.5c0,0.3-0.1,0.5-0.4,0.8c-0.4,0.4-0.9,0.6-1.6,0.5l-0.2,0l1.1,1.1l0,0c0.6-0.1,1.1-0.3,1.5-0.7
	c0.5-0.5,0.7-1,0.7-1.5c0-0.5-0.2-1.1-0.7-1.5C96,98.2,94.9,98.4,94,98.6"/>
<path d="M89.3,98.2l-3.3,2.2l0.6,1c0,0,2.3-1.6,2.5-1.7c0.1,0.1,1.1,1.7,1.2,1.8c-0.1,0.1-2.3,1.6-2.3,1.6l0.6,1
	c0,0,2.2-1.5,2.3-1.5c0.1,0.1,1.1,1.6,1.2,1.8c-0.1,0.1-2.4,1.6-2.4,1.6l0.6,1l3.3-2.2L89.3,98.2L89.3,98.2z"/>
<path d="M60.4,103.3c-0.1-0.1-3-1.9-3.1-2c0.1-0.1,1.8-2.8,1.8-2.8l-1-0.6l0,0.1l-4.1,6.5l1,0.6c0,0,1.7-2.7,1.8-2.8
	c0.1,0.1,3,1.9,3.1,2c-0.1,0.1-1.8,2.8-1.8,2.8l1,0.6l4.2-6.6l-1-0.6C62.1,100.5,60.5,103.2,60.4,103.3"/>
<path d="M56.3,97.6c0.1-1-0.3-1.9-0.9-2.6c-1.7-1.9-4-1.5-5.5-0.2c-0.9,0.8-1.4,1.8-1.4,2.8c-0.1,1,0.3,1.9,1,2.7
	c1.4,1.6,3.8,1.7,5.5,0.2C55.7,99.7,56.3,98.7,56.3,97.6 M55.1,97.6c0,0.7-0.4,1.5-1,2c-1.2,1.1-2.8,1.1-3.8-0.1
	c-0.5-0.5-0.7-1.2-0.6-1.8c0-0.7,0.4-1.4,1-2c0.6-0.5,1.4-0.8,2.1-0.8c0.7,0,1.3,0.3,1.7,0.8C54.9,96.3,55.2,96.9,55.1,97.6"/>
<path d="M52.3,91c0,0-4.8,2.2-5.2,2.4c0.2-0.4,3.3-6.5,3.3-6.5L50,86.1l-0.1,0l-7,3.3l0.5,1c0,0,4.8-2.2,5.2-2.4
	c-0.2,0.4-3.3,6.5-3.3,6.5l0.4,0.8l7-3.3L52.3,91z"/>
<polygon points="49.6,84 49.5,84 42,85.9 42.3,87 49.9,85.1 "/>
<path d="M46,81.4c-0.3-0.2-0.6-0.3-0.9-0.2c-0.3,0-0.6,0.2-0.8,0.5c-0.2,0.3-0.3,0.6-0.2,0.9c0,0.3,0.2,0.6,0.5,0.8
	c0.3,0.2,0.6,0.3,0.9,0.2c0.7-0.1,1.1-0.7,1-1.4C46.4,81.9,46.2,81.6,46,81.4"/>
<path d="M45.5,78.5c0.5-0.7,0.9-1.3,1.6-1.3c0.2,0,0.4,0.1,0.6,0.3c0.2,0.2,0.3,0.5,0.3,0.8c0,0.6-0.4,1.2-1.1,1.7l-0.2,0.2l1.7,0
	l0,0c0.5-0.6,0.7-1.2,0.7-2c0-0.5-0.2-1-0.5-1.4c-0.4-0.4-1-0.6-1.6-0.6c-1.4,0-2,0.9-2.6,1.8C44,78.5,43.7,79,43.1,79
	c-0.2,0-0.4-0.1-0.5-0.2c-0.2-0.2-0.3-0.5-0.3-0.8c0-0.5,0.3-1.1,0.8-1.5l0.2-0.1l-1.5,0l0,0c-0.4,0.5-0.6,1-0.6,1.6
	c0,0.7,0.2,1.2,0.6,1.6c0.4,0.4,0.9,0.6,1.5,0.6C44.4,80.1,45,79.3,45.5,78.5"/>
<path d="M45,75.2c1.1,0.3,2.2,0.1,3.1-0.4c0.8-0.5,1.4-1.3,1.6-2.3c0.2-1,0.1-2-0.4-2.8c-0.5-0.9-1.5-1.6-2.6-1.8
	c-2.2-0.6-4.3,0.6-4.8,2.7c-0.1,0.3-0.1,0.6-0.1,0.9c0,0.7,0.2,1.3,0.5,1.8C43,74.3,43.9,74.9,45,75.2 M43.2,70.9
	c0.2-0.7,0.6-1.2,1.1-1.6c0.6-0.4,1.4-0.5,2.2-0.3c0.8,0.2,1.5,0.7,1.8,1.3c0.3,0.6,0.4,1.2,0.3,1.9c-0.4,1.4-1.8,2.2-3.4,1.8
	C43.7,73.7,42.8,72.3,43.2,70.9"/>
<path d="M109.8,78.5c0-9.6-3.7-18.6-10.5-25.4c-0.8-0.8-1.6-1.5-2.5-2.3l0-1.4c1.4-0.1,2.6-1.3,2.6-2.7c0-1.5-1.2-2.7-2.7-2.7
	c-0.1,0-0.1,0-0.2,0l2.6-1.2l-1-2.2l3.9-9.1l-1.7-0.7l-4,9.3l-2.1,1l1.4,3H84.1H63.8H52.2l1.4-3l-2.2-1l-4-9.3l-1.7,0.7l3.9,9.1
	l-1,2.2l2.6,1.2c0,0,0,0-0.1,0c-1.5,0-2.7,1.2-2.7,2.7c0,1.4,1.1,2.6,2.5,2.7l0,1.4c-0.8,0.7-1.7,1.5-2.5,2.3
	c-6.8,6.8-10.5,15.8-10.5,25.4c0,7.4,2.2,14.5,6.5,20.6c4.2,5.9,9.9,10.4,16.7,12.9c0,0,0.4,0.1,1,0.4c0.1,1,0.7,1.9,1.6,2.2
	c1,0.4,2.1,0,2.7-0.7c0,0,0.1,0,0.1,0v10.2c0,3.8,3.2,6.8,7.2,6.8c4,0,7.2-3.1,7.2-6.8v-6.8l17.6-8.4c0.6-0.2,1.1-0.5,1.6-0.9
	c1.4-1.3,1.6-3.3,0.7-5.9c1.6-1.8,3-3.7,4.1-5.8C108.2,90.9,109.8,84.7,109.8,78.5 M91.1,45.6l5.2,1.1l-5.2,1.1V45.6z M74.4,100.3
	v-27H95l0,5.1c0,5-0.9,8.4-2.2,10.9c-1.1,1.8-2.4,3.5-4,5c-0.1,0.1-0.2,0.2-0.3,0.3C84.7,98.2,79.7,100.2,74.4,100.3 M80.6,101.2
	c-0.4,0.9-0.7,1.9-0.9,3c-2-0.7-3.9-1.4-5.8-2.1h0C76.3,102.1,78.5,101.8,80.6,101.2 M74.4,72.4V49.5h17.4H95l0,18l0,4.9H74.4z
	 M81.6,45.6l5.2,1.1l-5.2,1.1V45.6z M72,45.6l5.2,1.1L72,47.8V45.6z M62.4,45.6l5.2,1.1l-5.2,1.1V45.6z M53,45.6l5.2,1.1L53,47.8
	V45.6z M52.9,67.5l0-18h3.2h17.4v22.9H52.9L52.9,67.5z M52.9,73.3h20.6v27c-4.2-0.1-8.3-1.4-11.8-3.8c0,0,0,0,0,0
	c-0.1-0.1-0.3-0.2-0.4-0.3c0,0-0.1-0.1-0.1-0.1C61,96,61,96,60.9,95.9c-0.1-0.1-0.2-0.2-0.3-0.2c0,0,0,0-0.1-0.1
	c-2.2-1.7-4.1-3.9-5.5-6.4c-1.3-2.5-2.1-5.9-2.1-10.8L52.9,73.3z M62.7,110.6c-0.3-0.1-0.6-0.2-0.8-0.3c-6.4-2.4-11.9-6.7-15.8-12.3
	c-4-5.7-6.2-12.5-6.2-19.6c0-9.1,3.5-17.6,10-24.1c0.4-0.4,0.8-0.8,1.2-1.1l0,9.3c-1.4-1-3-2-3.1-2.1c0.1-0.1,1.3-2,1.3-2l-1-0.6
	l0,0.1L45,62.8l1,0.6c0,0,1.2-1.8,1.3-2c0.1,0.1,2.2,1.4,3.7,2.5l0,3.3l-6.6-3l0,0.1l-0.5,1l7.1,3.3l0,4c-0.5,1.9-0.8,3.9-0.8,6
	c0,4.3,1.2,8.3,3.2,11.8c1.3,2.5,3,4.2,4.6,5.7c0.7,0.6,1.4,1.2,2.2,1.8c0.1,0,0.1,0.1,0.2,0.1c0.1,0.1,0.2,0.1,0.3,0.2
	c0.1,0.1,0.2,0.1,0.3,0.2c0,0,0.1,0.1,0.1,0.1c0.6,0.4,1.2,0.8,1.9,1.1l0,0c0.9,0.4,2.1,1,3.5,1.6l-1.5,3.7l-0.7-0.3
	c-0.4-0.2-0.9,0-1.1,0.4c-0.2,0.4,0,0.9,0.4,1.1l0.7,0.3L62.7,110.6z M79.4,124.1c0,0.7-0.2,1.4-0.5,2c-0.3,0.5-0.8,0.8-1.3,0.8
	c-0.7,0-1.3-0.4-1.5-1.1c0-0.1-0.1-0.4-0.2-0.9c0.2,0.1,0.4,0.1,0.6,0.1c0.9,0,1.6-0.7,1.6-1.5c0-0.9-0.7-1.5-1.6-1.5
	c-0.5,0-0.9,0.2-1.2,0.5c-0.5-2-1-4.2-1-4.2H74h-0.4c0,0-0.5,2.2-1,4.2c-0.3-0.3-0.7-0.5-1.1-0.5c-0.9,0-1.5,0.7-1.5,1.5
	c0,0.9,0.7,1.5,1.5,1.5c0.2,0,0.4,0,0.6-0.1c-0.1,0.4-0.2,0.8-0.2,0.9c-0.2,0.6-0.8,1.1-1.5,1.1c-0.6,0-1.1-0.3-1.4-0.8
	c-0.3-0.6-0.4-1.3-0.4-2v-9.6c3.2,1,7.2,2.2,10.9,3V124.1z M80.2,115.8c-5.6-1.2-12.1-3.3-15.9-4.6c0.4-0.9,1-2.5,1.7-4.2l1,0.4
	c0,0.1,0,0.1,0,0.2c0,1.4,1.2,2.6,2.6,2.6s2.6-1.2,2.6-2.6c0-1.4-1.2-2.6-2.6-2.6c-0.8,0-1.4,0.3-1.9,0.9l-1.1-0.5
	c0.6-1.5,1.1-2.9,1.5-3.7c3.8,1.6,8.7,3.5,13.4,5c5,1.5,9,2.4,12,2.7C88.2,111.9,80.5,115.6,80.2,115.8 M99,106.6
	c-0.5,0.5-1.7,1-4.2,1c1.7-1.2,3.2-2.5,4.6-4C99.9,105,99.7,106,99,106.6 M92,107.4c-2.4-0.3-5.7-1.1-10-2.4
	c-0.2-0.1-0.4-0.1-0.6-0.2c0.4-2.5,1.2-4.1,2.6-4.9c2.2-1,4.2-2.4,6-4.1c1.6-1.4,3.2-3.1,4.4-5.5c2-3.5,3.2-7.6,3.2-11.9
	c0-2-0.3-4.1-0.8-6l0-3.8l1.1,2.8L99,71c0,0-1.1-2.7-1.1-2.8c0.2-0.1,6.2-2.5,6.2-2.5l-0.4-1.1l-0.1,0l-6.7,2.7v-0.5l4.5-6.4
	l-0.4-0.7l-0.1,0l-4,0.9l0-7.5c0.4,0.4,0.8,0.7,1.2,1.1c6.4,6.4,10,15,10,24.1c0,5.9-1.5,11.8-4.5,16.9
	C100.7,100.2,96.7,104.4,92,107.4 M97.2,64.4c0,0-0.2,0.3-0.4,0.6v-1.2C97.1,64.2,97.2,64.4,97.2,64.4 M96.9,61.9
	c0.2,0,2.2-0.5,2.5-0.6c-0.2,0.3-1.4,2-1.5,2.1C97.8,63.3,97,62.1,96.9,61.9"/>
<path d="M100.8,20.8c-1.4-2.1-3.7-3-5.4-3c-2.4,0-4.9,1-7.3,2c-2.7,1.1-5.5,2.2-8.3,2c0.3-1,0.7-2,1.2-2.8L79.3,18
	c0.3-0.6,0.6-1.3,0.7-2.1c-0.2-0.1-2.5-0.9-6.2-0.9c-3.7,0-5.8,0.8-6,0.9c0.1,0.8,0.3,1.5,0.7,2.1l-1.7,0.8c0.5,0.8,0.9,1.8,1.2,2.8
	c-2.8,0.3-5.6-0.9-8.3-2c-2.4-1-4.9-2-7.3-2c-1.7,0-4,0.9-5.4,3c-1.1,1.7-2,4.9,0.4,10h0l0-0.1l3.5-1.5l0.2,0.6
	c-1.1,0.5-2.2,1.8-0.9,4.8c3-1.3,3.1-3,2.6-4.1l0.6-0.2l1.5,3.4l1.5,3.4l-0.6,0.2c-0.5-1.1-1.8-2.2-4.8-0.9c1.3,3,3.6,4.2,5.4,4.2
	c3.1,0,5.3-1.9,5-3.8c-0.2-1.4-1.5-1.9-2-1.8c-0.6,0.1-1,0.8-0.9,1.2c0,0.1,0.1,0.2,0.1,0.3l-0.1,0.1c-0.8-0.1-1.5-0.7-1.7-1.5
	c-0.2-1,0.5-2,1.5-2.2c0.6-0.1,1.2,0.1,1.7,0.5l0.2-0.3c-0.6-0.3-1-0.8-1.1-1.5c-0.3-1.6,1.5-3.2,1.6-3.2h0h0c0,0,2.3,0.8,2.6,2.4
	c0.1,0.7-0.1,1.3-0.5,1.8l0.3,0.2c0.2-0.5,0.7-1,1.4-1.1c1-0.2,2,0.5,2.2,1.5c0.2,0.8-0.3,1.7-1,2l-0.1-0.1c0-0.1,0-0.2,0-0.3
	c-0.1-0.5-0.7-0.9-1.3-0.8c-0.5,0.1-1.5,1-1.2,2.4c0.5,2.4,2.5,4.1,4.9,4.1c2.4,0,5-2,5-5c-3.5,0-4.3,1.6-4.3,3h-0.7v-4v-4h0.7
	c0,1.3,0.9,3,4.3,3c0-3.5-1.6-4.3-3-4.3v-0.7h3.4h1.1h3.4v0.7c-1.3,0-3,0.9-3,4.3c3.5,0,4.3-1.6,4.3-3H80v4v4h-0.7
	c0-1.3-0.9-3-4.3-3c0,3,2.5,5,5,5c2.4,0,4.5-1.7,4.9-4.1c0.3-1.4-0.7-2.4-1.2-2.4c-0.6-0.1-1.2,0.3-1.3,0.8c0,0.1,0,0.2,0,0.3
	l-0.1,0.1c-0.7-0.4-1.2-1.2-1-2c0.2-1,1.2-1.7,2.2-1.5c0.6,0.1,1.1,0.5,1.4,1.1l0.3-0.2c-0.4-0.5-0.6-1.1-0.5-1.8
	c0.3-1.6,2.6-2.4,2.6-2.4c0,0,1.9,1.6,1.6,3.2c-0.1,0.7-0.6,1.2-1.1,1.5l0.2,0.3c0.4-0.4,1-0.6,1.7-0.5c1,0.2,1.7,1.2,1.5,2.2
	c-0.2,0.9-0.9,1.5-1.7,1.5l-0.1-0.1c0.1-0.1,0.1-0.2,0.1-0.3c0.1-0.5-0.3-1.1-0.9-1.2c-0.5-0.1-1.8,0.4-2,1.8c-0.3,1.9,2,3.8,5,3.8
	c1.8,0,4.1-1.2,5.4-4.2c-3-1.3-4.3-0.2-4.8,0.9l-0.6-0.2l1.5-3.4l1.5-3.4l0.6,0.2c-0.5,1.1-0.4,2.8,2.6,4.1c1.3-3,0.2-4.3-0.9-4.8
	l0.2-0.6l3.5,1.5l0,0.1h0C102.7,25.7,101.9,22.5,100.8,20.8 M68.6,25.2c-1.7,0-3.1,0.9-3.9,2.3c-0.9-1.6-2.9-2.6-4.8-2.2
	c-1.4,0.3-2.6,1.3-3.1,2.5c-0.8-1.3-2.2-2.1-3.8-2.1c-2,0-3.7,1.3-4.3,3.1c-1.1-2.9-1.1-5.3,0-7c1.1-1.7,3-2.2,3.8-2.2
	c2.1,0,4.3,0.9,6.6,1.8c3,1.2,6.1,2.5,9.5,2c0.1,0.6,0.2,1.1,0.3,1.7C68.8,25.2,68.7,25.2,68.6,25.2 M73.9,16c0.9,0,1.7,0.7,1.8,1.6
	c-0.5-0.4-1.1-0.7-1.8-0.7c-0.7,0-1.3,0.3-1.8,0.7C72.3,16.6,73,16,73.9,16 M73.9,17.7c0.9,0,1.7,0.7,1.8,1.6
	c-0.5-0.4-1.1-0.7-1.8-0.7c-0.7,0-1.3,0.3-1.8,0.7C72.2,18.4,73,17.7,73.9,17.7 M73.9,27.7c-1,0-1.8-0.8-1.8-1.8
	c0-1,0.8-1.8,1.8-1.8c1,0,1.8,0.8,1.8,1.8C75.7,26.9,74.9,27.7,73.9,27.7 M75.6,23.9c-0.5-0.4-1.1-0.6-1.7-0.6
	c-0.7,0-1.2,0.2-1.7,0.6c-0.1-0.2-0.1-0.4-0.1-0.6c0-1,0.8-1.8,1.8-1.8c1,0,1.8,0.8,1.8,1.8C75.7,23.5,75.7,23.7,75.6,23.9
	 M75.7,21.3c-0.5-0.4-1.1-0.7-1.8-0.7c-0.7,0-1.3,0.3-1.8,0.7c0,0,0-0.1,0-0.1c0-1,0.8-1.8,1.8-1.8c1,0,1.8,0.8,1.8,1.8
	C75.7,21.3,75.7,21.3,75.7,21.3 M99.1,28.8c-0.6-1.8-2.3-3.1-4.3-3.1c-1.6,0-3,0.8-3.8,2.1c-0.6-1.2-1.7-2.2-3.1-2.5
	c-2-0.4-3.9,0.5-4.8,2.2c-0.8-1.3-2.2-2.3-3.9-2.3c-0.1,0-0.2,0-0.3,0c0.1-0.5,0.2-1.1,0.3-1.7c3.4,0.5,6.5-0.8,9.5-2
	c2.3-0.9,4.5-1.8,6.6-1.8c0.8,0,2.7,0.5,3.8,2.2C100.2,23.5,100.2,25.9,99.1,28.8"/>
<polygon points="84.6,50.8 84.6,50.8 84,50.8 84.3,51.6 84.6,51.6 84.7,51.6 84.6,51.8 84.8,51.6 84.8,51.7 85,51.6 85.3,50.8 "/>
<polyline points="76.3,51.4 76.2,51.5 76.2,51.9 75.5,51.8 75.5,51.3 75,50.4 75.2,50.3 76,50.8 76.6,50.8 76.6,51.5 76.3,51.4 "/>
<path d="M76.8,51.3c-0.1,0-0.2-0.1-0.2-0.2c0-0.1,0.1-0.2,0.2-0.2c0.1,0,0.1,0,0.2,0.1h0.1c0,0,0-0.1,0-0.2c0-0.3-0.2-0.5-0.5-0.5
	c-0.3,0-0.5,0.2-0.5,0.5s0.2,0.5,0.5,0.5H76.8C76.8,51.3,76.8,51.3,76.8,51.3"/>
<path d="M76.1,52c0-0.1-0.1-0.2-0.2-0.2c-0.1,0-0.2,0.1-0.2,0.2c0,0.1,0,0.1,0.1,0.2v0.1c0,0-0.1,0-0.2,0c-0.3,0-0.5-0.2-0.5-0.5
	c0-0.3,0.2-0.5,0.5-0.5c0.3,0,0.5,0.2,0.5,0.5V52L76.1,52"/>
<polyline points="76.3,70.6 76.2,70.4 76.2,70.1 75.5,70.2 75.5,70.7 75,71.6 75.2,71.7 76,71.2 76.6,71.2 76.6,70.5 76.3,70.6 "/>
<path d="M76.8,70.7c-0.1,0-0.2,0.1-0.2,0.2c0,0.1,0.1,0.2,0.2,0.2c0.1,0,0.1,0,0.2-0.1h0.1c0,0,0,0.1,0,0.2c0,0.3-0.2,0.5-0.5,0.5
	c-0.3,0-0.5-0.2-0.5-0.5c0-0.3,0.2-0.5,0.5-0.5H76.8C76.8,70.7,76.8,70.7,76.8,70.7"/>
<path d="M76.1,69.9c0,0.1-0.1,0.2-0.2,0.2c-0.1,0-0.2-0.1-0.2-0.2c0-0.1,0-0.1,0.1-0.2v-0.1c0,0-0.1,0-0.2,0c-0.3,0-0.5,0.2-0.5,0.5
	c0,0.3,0.2,0.5,0.5,0.5c0.3,0,0.5-0.2,0.5-0.5V69.9C76.1,69.9,76.1,69.9,76.1,69.9"/>
<polyline points="92.9,70.6 93.1,70.4 93.1,70.1 93.7,70.2 93.7,70.7 94.2,71.6 94.1,71.7 93.2,71.2 92.7,71.2 92.7,70.5 93,70.6 
	"/>
<path d="M92.5,70.7c0.1,0,0.2,0.1,0.2,0.2c0,0.1-0.1,0.2-0.2,0.2c-0.1,0-0.1,0-0.2-0.1h-0.1c0,0,0,0.1,0,0.2c0,0.3,0.2,0.5,0.5,0.5
	c0.3,0,0.5-0.2,0.5-0.5c0-0.3-0.2-0.5-0.5-0.5H92.5C92.4,70.7,92.4,70.7,92.5,70.7"/>
<path d="M93.2,69.9c0,0.1,0.1,0.2,0.2,0.2c0.1,0,0.2-0.1,0.2-0.2c0-0.1,0-0.1-0.1-0.2v-0.1c0.1,0,0.1,0,0.2,0c0.3,0,0.5,0.2,0.5,0.5
	c0,0.3-0.2,0.5-0.5,0.5c-0.3,0-0.5-0.2-0.5-0.5V69.9C93.2,69.9,93.2,69.9,93.2,69.9"/>
<polyline points="93,51.4 93.1,51.5 93.1,51.9 93.7,51.8 93.7,51.3 94.2,50.4 94.1,50.3 93.2,50.8 92.7,50.8 92.7,51.5 93,51.4 "/>
<path d="M92.5,51.3c0.1,0,0.2-0.1,0.2-0.2c0-0.1-0.1-0.2-0.2-0.2c-0.1,0-0.1,0-0.2,0.1h-0.1c0,0,0-0.1,0-0.2c0-0.3,0.2-0.5,0.5-0.5
	c0.3,0,0.5,0.2,0.5,0.5s-0.2,0.5-0.5,0.5H92.5C92.5,51.3,92.5,51.3,92.5,51.3"/>
<path d="M93.2,52c0-0.1,0.1-0.2,0.2-0.2c0.1,0,0.2,0.1,0.2,0.2c0,0.1,0,0.1-0.1,0.2v0.1c0.1,0,0.1,0,0.2,0c0.3,0,0.5-0.2,0.5-0.5
	c0-0.3-0.2-0.5-0.5-0.5c-0.3,0-0.5,0.2-0.5,0.5V52L93.2,52z"/>
<rect x="83.9" y="52.7" width="1.5" height="0.6"/>
<polygon points="84.7,54 84.5,54 84.3,53.4 85,53.4 "/>
<polyline points="85.6,53 85.6,53 85.6,53 85.6,53 "/>
<path d="M85.7,53.2c0,0-0.1,0.1-0.1,0.1c-0.1,0-0.2-0.1-0.2-0.2c0-0.1,0.1-0.2,0.2-0.2l-0.2,0c-0.2,0-0.4,0.2-0.4,0.4
	c0,0.2,0.2,0.4,0.4,0.4c0.2,0,0.4-0.2,0.4-0.4C85.8,53.3,85.8,53.3,85.7,53.2L85.7,53.2z"/>
<path d="M83.7,53C83.7,53,83.7,53,83.7,53L83.7,53L83.7,53z"/>
<path d="M83.6,53.2c0,0,0.1,0.1,0.1,0.1c0.1,0,0.2-0.1,0.2-0.2c0-0.1-0.1-0.2-0.2-0.2l0.2,0c0.2,0,0.4,0.2,0.4,0.4
	c0,0.2-0.2,0.4-0.4,0.4c-0.2,0-0.4-0.2-0.4-0.4C83.5,53.3,83.5,53.3,83.6,53.2L83.6,53.2z"/>
<polygon points="84.6,71.2 84.6,71.2 85.3,71.2 85,70.4 84.6,70.4 84.6,70.4 84.7,70.2 84.5,70.4 84.5,70.3 84.3,70.4 84,71.2 "/>
<rect x="83.9" y="68.6" width="1.5" height="0.6"/>
<polygon points="84.5,68 84.7,68 85,68.6 84.2,68.6 "/>
<polygon points="83.7,69 83.7,69 83.7,69 "/>
<path d="M83.6,68.7c0,0,0.1-0.1,0.1-0.1c0.1,0,0.2,0.1,0.2,0.2c0,0.1-0.1,0.2-0.2,0.2h0.2c0.2,0,0.4-0.2,0.4-0.4
	c0-0.2-0.2-0.4-0.4-0.4c-0.2,0-0.4,0.2-0.4,0.4C83.5,68.6,83.5,68.6,83.6,68.7L83.6,68.7z"/>
<polygon points="85.6,69 85.6,69 85.6,69 "/>
<path d="M85.7,68.7c0,0-0.1-0.1-0.1-0.1c-0.1,0-0.2,0.1-0.2,0.2c0,0.1,0.1,0.2,0.2,0.2h-0.2c-0.2,0-0.4-0.2-0.4-0.4
	c0-0.2,0.2-0.4,0.4-0.4c0.2,0,0.4,0.2,0.4,0.4C85.8,68.6,85.8,68.6,85.7,68.7L85.7,68.7z"/>
<polygon points="93.8,61 93.8,61 93.8,60.3 93,60.7 92.9,61 92.9,61.1 92.7,60.9 92.9,61.1 92.9,61.2 93,61.3 93.8,61.6 "/>
<rect x="91.1" y="60.3" width="0.6" height="1.5"/>
<polygon points="90.6,61.1 90.6,60.9 91.2,60.6 91.2,61.4 "/>
<polyline points="91.5,61.9 91.5,61.9 91.5,61.9 91.5,61.9 "/>
<path d="M91.3,62c0,0-0.1-0.1-0.1-0.1c0-0.1,0.1-0.2,0.2-0.2c0.1,0,0.2,0.1,0.2,0.2v-0.2c0-0.2-0.2-0.4-0.4-0.4
	c-0.2,0-0.4,0.2-0.4,0.4c0,0.2,0.2,0.4,0.4,0.4C91.2,62.1,91.2,62.1,91.3,62L91.3,62z"/>
<path d="M91.5,60.1C91.5,60.1,91.5,60.1,91.5,60.1L91.5,60.1C91.5,60.1,91.5,60.1,91.5,60.1"/>
<path d="M91.3,59.9c0,0-0.1,0.1-0.1,0.1c0,0.1,0.1,0.2,0.2,0.2c0.1,0,0.2-0.1,0.2-0.2v0.2c0,0.2-0.2,0.4-0.4,0.4
	c-0.2,0-0.4-0.2-0.4-0.4c0-0.2,0.2-0.4,0.4-0.4C91.2,59.8,91.2,59.8,91.3,59.9L91.3,59.9z"/>
<polygon points="75.5,61 75.5,61 75.5,60.3 76.3,60.7 76.3,61 76.3,61.1 76.6,60.9 76.4,61.1 76.4,61.2 76.3,61.3 75.5,61.6 "/>
<rect x="77.5" y="60.3" width="0.6" height="1.5"/>
<polygon points="78.7,61.1 78.7,60.9 78.1,60.6 78.1,61.4 "/>
<polyline points="77.7,61.9 77.7,61.9 77.7,61.9 77.7,61.9 "/>
<path d="M78,62c0,0,0.1-0.1,0.1-0.1c0-0.1-0.1-0.2-0.2-0.2c-0.1,0-0.2,0.1-0.2,0.2v-0.2c0-0.2,0.2-0.4,0.4-0.4
	c0.2,0,0.4,0.2,0.4,0.4c0,0.2-0.2,0.4-0.4,0.4C78.1,62.1,78.1,62.1,78,62L78,62z"/>
<path d="M77.7,60.1C77.7,60.1,77.7,60.1,77.7,60.1L77.7,60.1C77.7,60.1,77.7,60.1,77.7,60.1"/>
<path d="M78,59.9c0,0,0.1,0.1,0.1,0.1c0,0.1-0.1,0.2-0.2,0.2c-0.1,0-0.2-0.1-0.2-0.2v0.2c0,0.2,0.2,0.4,0.4,0.4
	c0.2,0,0.4-0.2,0.4-0.4c0-0.2-0.2-0.4-0.4-0.4C78.1,59.8,78.1,59.8,78,59.9L78,59.9z"/>
<g>
	<path d="M81.9,199.8c-4,3.7-9.7,5.6-17,5.6c-7.5,0-13.4-1.8-17.6-5.4c-4.2-3.6-6.3-9.3-6.3-17.1v-37.3h7.8V183
		c0,5.2,1.4,9.2,4.2,11.9c2.8,2.7,6.8,4,12,4c5,0,8.7-1.3,11.3-4c2.6-2.7,3.9-6.7,3.9-11.9v-37.3h7.8V183
		C87.8,190.5,85.8,196.1,81.9,199.8z"/>
	<path d="M106.6,145.7v29.1l29.6-29.1h10.1l-24.6,23.6l25.6,34.8h-9.8l-21.1-29.5l-9.7,9.1v20.4h-7.8v-58.4H106.6z"/>
	<path d="M187.5,204.1L167,145.7h8.3l16.7,50.6h0.2l16.8-50.6h8.1l-20.8,58.4H187.5z"/>
	<path d="M219.7,154.3v-8.5h7v8.5H219.7z M226.7,161.9v42.3h-7v-42.3H226.7z"/>
	<path d="M241.4,194.7c0.7,1.1,1.5,1.9,2.6,2.5c1.1,0.6,2.3,1.1,3.6,1.3c1.3,0.3,2.7,0.4,4.1,0.4c1.1,0,2.2-0.1,3.4-0.2
		c1.2-0.2,2.3-0.5,3.3-0.9c1-0.4,1.8-1.1,2.5-1.9c0.7-0.8,1-1.9,1-3.2c0-1.8-0.7-3.2-2-4.1c-1.4-0.9-3.1-1.7-5.1-2.2
		s-4.3-1.1-6.7-1.6c-2.4-0.5-4.6-1.1-6.7-2c-2-0.8-3.7-2-5.1-3.6c-1.4-1.5-2-3.7-2-6.4c0-2.1,0.5-4,1.4-5.5c1-1.5,2.2-2.8,3.7-3.7
		c1.5-1,3.2-1.7,5.1-2.1c1.9-0.5,3.7-0.7,5.6-0.7c2.4,0,4.6,0.2,6.6,0.6c2,0.4,3.8,1.1,5.4,2.1c1.6,1,2.8,2.4,3.7,4.1
		c0.9,1.7,1.5,3.9,1.6,6.4h-7c-0.1-1.4-0.5-2.5-1.1-3.4c-0.6-0.9-1.4-1.6-2.3-2.2c-0.9-0.5-1.9-0.9-3.1-1.2
		c-1.1-0.2-2.2-0.4-3.4-0.4c-1,0-2.1,0.1-3.1,0.2c-1.1,0.2-2,0.5-2.9,0.9c-0.9,0.4-1.6,1-2.1,1.6c-0.5,0.7-0.8,1.6-0.8,2.7
		c0,1.2,0.4,2.2,1.3,3c0.8,0.8,1.9,1.4,3.2,2c1.3,0.5,2.8,1,4.4,1.3c1.6,0.4,3.3,0.7,4.9,1.1c1.7,0.4,3.4,0.8,5.1,1.4
		c1.7,0.5,3.1,1.3,4.4,2.2c1.3,0.9,2.3,2,3.1,3.4c0.8,1.4,1.2,3.1,1.2,5.1c0,2.6-0.5,4.7-1.6,6.4c-1.1,1.7-2.5,3.1-4.2,4.1
		c-1.7,1-3.7,1.8-5.8,2.2s-4.3,0.6-6.4,0.6c-2.3,0-4.6-0.2-6.7-0.7c-2.1-0.5-4-1.3-5.6-2.4c-1.6-1.1-2.9-2.6-3.9-4.4
		c-1-1.8-1.5-4-1.6-6.7h7C240.4,192.3,240.8,193.6,241.4,194.7z"/>
	<path d="M313.1,204c-1.2,0.7-2.9,1.1-5,1.1c-1.8,0-3.2-0.5-4.3-1.5c-1.1-1-1.6-2.7-1.6-4.9c-1.9,2.3-4.1,3.9-6.7,4.9
		c-2.5,1-5.3,1.5-8.2,1.5c-1.9,0-3.7-0.2-5.4-0.7s-3.2-1.1-4.5-2c-1.3-0.9-2.2-2.1-3-3.6c-0.7-1.5-1.1-3.3-1.1-5.4
		c0-2.4,0.4-4.4,1.2-5.9c0.8-1.5,1.9-2.8,3.2-3.7c1.3-1,2.9-1.7,4.6-2.2c1.7-0.5,3.5-0.9,5.3-1.2c1.9-0.4,3.7-0.7,5.4-0.9
		c1.7-0.2,3.2-0.5,4.5-0.8c1.3-0.4,2.3-0.9,3.1-1.6c0.8-0.7,1.1-1.7,1.1-3c0-1.5-0.3-2.8-0.9-3.7c-0.6-0.9-1.3-1.6-2.2-2.1
		c-0.9-0.5-1.9-0.8-3-1c-1.1-0.2-2.2-0.2-3.3-0.2c-2.9,0-5.4,0.6-7.4,1.7c-2,1.1-3,3.2-3.2,6.3h-7c0.1-2.6,0.7-4.8,1.6-6.6
		c1-1.8,2.3-3.3,3.9-4.4c1.6-1.1,3.5-1.9,5.6-2.4c2.1-0.5,4.3-0.7,6.7-0.7c1.9,0,3.8,0.1,5.7,0.4c1.9,0.3,3.6,0.8,5.1,1.7
		c1.5,0.8,2.8,2,3.7,3.6c0.9,1.5,1.4,3.5,1.4,6v21.7c0,1.6,0.1,2.8,0.3,3.6c0.2,0.8,0.8,1.1,1.9,1.1c0.6,0,1.3-0.1,2.1-0.3V204z
		 M301.8,182.3c-0.9,0.7-2,1.1-3.4,1.4c-1.4,0.3-2.9,0.5-4.5,0.7c-1.6,0.2-3.1,0.4-4.7,0.7c-1.6,0.2-3,0.6-4.3,1.2
		c-1.3,0.5-2.3,1.3-3.1,2.3c-0.8,1-1.2,2.4-1.2,4.1c0,1.1,0.2,2.1,0.7,2.9c0.5,0.8,1.1,1.4,1.8,1.9s1.6,0.8,2.6,1.1
		c1,0.2,2,0.3,3.1,0.3c2.3,0,4.3-0.3,5.9-0.9s3-1.4,4-2.4c1-0.9,1.8-2,2.3-3.1c0.5-1.1,0.7-2.2,0.7-3.1V182.3z"/>
	<path d="M323.5,194.7c0.7,1.1,1.5,1.9,2.6,2.5c1.1,0.6,2.3,1.1,3.6,1.3c1.3,0.3,2.7,0.4,4.1,0.4c1.1,0,2.2-0.1,3.4-0.2
		c1.2-0.2,2.3-0.5,3.3-0.9c1-0.4,1.8-1.1,2.5-1.9c0.7-0.8,1-1.9,1-3.2c0-1.8-0.7-3.2-2-4.1c-1.4-0.9-3.1-1.7-5.1-2.2
		s-4.3-1.1-6.7-1.6c-2.4-0.5-4.6-1.1-6.7-2c-2-0.8-3.8-2-5.1-3.6c-1.4-1.5-2-3.7-2-6.4c0-2.1,0.5-4,1.4-5.5c1-1.5,2.2-2.8,3.7-3.7
		c1.5-1,3.2-1.7,5.1-2.1c1.9-0.5,3.7-0.7,5.6-0.7c2.4,0,4.6,0.2,6.6,0.6c2,0.4,3.8,1.1,5.4,2.1c1.6,1,2.8,2.4,3.7,4.1
		c0.9,1.7,1.5,3.9,1.6,6.4h-7c-0.1-1.4-0.5-2.5-1.1-3.4c-0.6-0.9-1.4-1.6-2.3-2.2c-0.9-0.5-2-0.9-3.1-1.2c-1.1-0.2-2.2-0.4-3.4-0.4
		c-1,0-2.1,0.1-3.1,0.2c-1.1,0.2-2,0.5-2.9,0.9c-0.9,0.4-1.6,1-2.1,1.6c-0.5,0.7-0.8,1.6-0.8,2.7c0,1.2,0.4,2.2,1.3,3
		c0.8,0.8,1.9,1.4,3.2,2c1.3,0.5,2.8,1,4.4,1.3s3.3,0.7,4.9,1.1c1.7,0.4,3.4,0.8,5.1,1.4c1.7,0.5,3.1,1.3,4.4,2.2
		c1.3,0.9,2.3,2,3.1,3.4c0.8,1.4,1.2,3.1,1.2,5.1c0,2.6-0.5,4.7-1.6,6.4c-1.1,1.7-2.5,3.1-4.2,4.1c-1.7,1-3.7,1.8-5.8,2.2
		c-2.2,0.4-4.3,0.6-6.4,0.6c-2.3,0-4.6-0.2-6.7-0.7c-2.1-0.5-4-1.3-5.6-2.4c-1.6-1.1-2.9-2.6-3.9-4.4c-1-1.8-1.5-4-1.6-6.7h7
		C322.4,192.3,322.8,193.6,323.5,194.7z"/>
	<path d="M416.4,204c-1.2,0.7-2.9,1.1-5,1.1c-1.8,0-3.2-0.5-4.3-1.5c-1.1-1-1.6-2.7-1.6-4.9c-1.9,2.3-4.1,3.9-6.7,4.9
		c-2.5,1-5.3,1.5-8.2,1.5c-1.9,0-3.7-0.2-5.4-0.7s-3.2-1.1-4.5-2c-1.3-0.9-2.2-2.1-3-3.6c-0.7-1.5-1.1-3.3-1.1-5.4
		c0-2.4,0.4-4.4,1.2-5.9c0.8-1.5,1.9-2.8,3.2-3.7c1.3-1,2.9-1.7,4.6-2.2c1.7-0.5,3.5-0.9,5.3-1.2c1.9-0.4,3.7-0.7,5.4-0.9
		c1.7-0.2,3.2-0.5,4.5-0.8c1.3-0.4,2.3-0.9,3.1-1.6c0.8-0.7,1.1-1.7,1.1-3c0-1.5-0.3-2.8-0.9-3.7c-0.6-0.9-1.3-1.6-2.2-2.1
		c-0.9-0.5-1.9-0.8-3-1c-1.1-0.2-2.2-0.2-3.3-0.2c-2.9,0-5.4,0.6-7.4,1.7c-2,1.1-3,3.2-3.2,6.3h-7c0.1-2.6,0.7-4.8,1.6-6.6
		c1-1.8,2.3-3.3,3.9-4.4c1.6-1.1,3.5-1.9,5.6-2.4c2.1-0.5,4.3-0.7,6.7-0.7c1.9,0,3.8,0.1,5.7,0.4c1.9,0.3,3.6,0.8,5.1,1.7
		c1.5,0.8,2.8,2,3.7,3.6c0.9,1.5,1.4,3.5,1.4,6v21.7c0,1.6,0.1,2.8,0.3,3.6c0.2,0.8,0.8,1.1,1.9,1.1c0.6,0,1.3-0.1,2.1-0.3V204z
		 M405.2,182.3c-0.9,0.7-2,1.1-3.4,1.4c-1.4,0.3-2.9,0.5-4.5,0.7c-1.6,0.2-3.1,0.4-4.7,0.7c-1.6,0.2-3,0.6-4.3,1.2
		c-1.3,0.5-2.3,1.3-3.1,2.3c-0.8,1-1.2,2.4-1.2,4.1c0,1.1,0.2,2.1,0.7,2.9c0.5,0.8,1.1,1.4,1.8,1.9s1.6,0.8,2.6,1.1
		c1,0.2,2,0.3,3.1,0.3c2.3,0,4.3-0.3,5.9-0.9s3-1.4,4-2.4c1-0.9,1.8-2,2.3-3.1c0.5-1.1,0.7-2.2,0.7-3.1V182.3z"/>
	<path d="M428.1,161.9v6.7h0.2c2.9-5.1,7.5-7.7,13.7-7.7c2.8,0,5.1,0.4,7,1.1c1.9,0.8,3.4,1.8,4.5,3.2c1.1,1.4,1.9,3,2.4,4.9
		c0.5,1.9,0.7,4,0.7,6.3v27.8h-7v-28.6c0-2.6-0.8-4.7-2.3-6.2c-1.5-1.5-3.6-2.3-6.3-2.3c-2.1,0-4,0.3-5.5,1
		c-1.6,0.7-2.9,1.6-3.9,2.8c-1,1.2-1.8,2.6-2.3,4.2c-0.5,1.6-0.8,3.4-0.8,5.3v23.9h-7v-42.3H428.1z"/>
	<path d="M496.4,204.1v-5.7h-0.2c-1.1,2.3-2.9,4-5.4,5.1c-2.5,1-5.2,1.6-8.1,1.6c-3.3,0-6.1-0.6-8.5-1.8c-2.4-1.2-4.4-2.8-6.1-4.8
		c-1.6-2-2.8-4.4-3.6-7c-0.8-2.7-1.2-5.5-1.2-8.5c0-3,0.4-5.8,1.2-8.5c0.8-2.7,2-5,3.6-7c1.6-2,3.6-3.6,6.1-4.7
		c2.4-1.2,5.2-1.8,8.5-1.8c1.1,0,2.3,0.1,3.5,0.3c1.3,0.2,2.5,0.6,3.8,1.1c1.3,0.5,2.4,1.2,3.6,2c1.1,0.8,2.1,1.9,2.8,3.1h0.2v-21.8
		h7v58.4H496.4z M471.4,189.1c0.5,1.9,1.3,3.6,2.4,5c1.1,1.5,2.4,2.6,4.1,3.5c1.7,0.9,3.6,1.3,5.8,1.3c2.3,0,4.3-0.5,6-1.4
		c1.6-0.9,3-2.1,4-3.6c1-1.5,1.8-3.2,2.2-5.1c0.5-1.9,0.7-3.8,0.7-5.8c0-2.1-0.2-4.1-0.7-6c-0.5-1.9-1.3-3.6-2.3-5.1
		c-1.1-1.5-2.4-2.7-4.1-3.6c-1.7-0.9-3.7-1.3-6.1-1.3c-2.3,0-4.3,0.5-6,1.4c-1.6,0.9-2.9,2.2-3.9,3.7s-1.7,3.3-2.1,5.2
		c-0.4,2-0.7,4-0.7,6.1C470.7,185.3,470.9,187.3,471.4,189.1z"/>
	<path d="M49.3,243.9v58.4h-7.8v-58.4H49.3z"/>
	<path d="M66.4,260v6.2h0.2c3.2-4.8,7.7-7.2,13.7-7.2c2.6,0,5,0.5,7.1,1.6s3.6,2.9,4.5,5.6c1.4-2.3,3.3-4.1,5.6-5.3
		c2.3-1.3,4.9-1.9,7.6-1.9c2.1,0,4,0.2,5.8,0.7c1.7,0.5,3.2,1.2,4.4,2.2c1.2,1,2.2,2.2,2.9,3.8c0.7,1.6,1,3.4,1,5.6v31h-7v-27.7
		c0-1.3-0.1-2.5-0.3-3.7c-0.2-1.1-0.6-2.1-1.2-3c-0.6-0.8-1.4-1.5-2.5-2c-1.1-0.5-2.4-0.7-4.1-0.7c-3.4,0-6.1,1-8.1,2.9
		S93,272.7,93,276v26.3h-7v-27.7c0-1.4-0.1-2.6-0.4-3.8c-0.2-1.1-0.7-2.1-1.3-3c-0.6-0.8-1.4-1.5-2.4-2c-1-0.5-2.3-0.7-3.9-0.7
		c-2,0-3.7,0.4-5.2,1.2c-1.4,0.8-2.6,1.8-3.5,2.9c-0.9,1.1-1.6,2.3-2,3.6c-0.4,1.2-0.6,2.2-0.6,3.1v26.3h-7V260H66.4z"/>
	<path d="M134.8,260v6.2h0.2c3.2-4.8,7.7-7.2,13.7-7.2c2.6,0,5,0.5,7.1,1.6s3.6,2.9,4.5,5.6c1.4-2.3,3.3-4.1,5.6-5.3
		c2.3-1.3,4.9-1.9,7.6-1.9c2.1,0,4,0.2,5.8,0.7c1.7,0.5,3.2,1.2,4.4,2.2c1.2,1,2.2,2.2,2.9,3.8c0.7,1.6,1,3.4,1,5.6v31h-7v-27.7
		c0-1.3-0.1-2.5-0.3-3.7c-0.2-1.1-0.6-2.1-1.2-3c-0.6-0.8-1.4-1.5-2.5-2c-1.1-0.5-2.4-0.7-4.1-0.7c-3.4,0-6.1,1-8.1,2.9
		s-2.9,4.6-2.9,7.9v26.3h-7v-27.7c0-1.4-0.1-2.6-0.4-3.8c-0.2-1.1-0.7-2.1-1.3-3c-0.6-0.8-1.4-1.5-2.4-2c-1-0.5-2.3-0.7-3.9-0.7
		c-2,0-3.7,0.4-5.2,1.2c-1.4,0.8-2.6,1.8-3.5,2.9c-0.9,1.1-1.6,2.3-2,3.6c-0.4,1.2-0.6,2.2-0.6,3.1v26.3h-7V260H134.8z"/>
	<path d="M197,252.4v-8.5h7v8.5H197z M204,260v42.3h-7V260H204z"/>
	<path d="M245.1,314.2c-3.2,3.4-8.1,5.2-14.9,5.2c-2,0-4-0.2-6-0.7c-2-0.4-3.9-1.1-5.6-2.1c-1.7-1-3-2.3-4.1-3.8
		c-1.1-1.6-1.7-3.5-1.8-5.8h7c0.1,1.3,0.4,2.3,1.2,3.2c0.7,0.9,1.6,1.6,2.7,2.1c1.1,0.5,2.2,0.9,3.5,1.2c1.3,0.2,2.5,0.4,3.6,0.4
		c2.3,0,4.2-0.4,5.8-1.2c1.6-0.8,2.9-1.9,3.9-3.3c1-1.4,1.8-3.1,2.2-5c0.5-2,0.7-4.1,0.7-6.5v-2.8h-0.2c-1.2,2.6-3,4.5-5.4,5.8
		c-2.4,1.2-5,1.8-7.7,1.8c-3.2,0-5.9-0.6-8.3-1.7c-2.3-1.1-4.3-2.7-5.9-4.6c-1.6-1.9-2.8-4.2-3.6-6.8c-0.8-2.6-1.2-5.3-1.2-8.2
		c0-2.5,0.3-5.1,1-7.7c0.7-2.6,1.7-5,3.3-7.2c1.5-2.2,3.5-3.9,6.1-5.3c2.5-1.4,5.6-2.1,9.2-2.1c2.7,0,5.1,0.6,7.4,1.8
		c2.2,1.2,4,2.9,5.2,5.3h0.1V260h6.5v38.7C249.8,305.6,248.3,310.8,245.1,314.2z M236.2,295.2c1.6-1,2.9-2.2,3.9-3.8
		s1.7-3.3,2.2-5.3c0.5-2,0.7-3.9,0.7-5.9c0-1.9-0.2-3.7-0.7-5.5c-0.4-1.8-1.1-3.4-2.1-4.9c-1-1.4-2.2-2.6-3.7-3.5
		c-1.5-0.9-3.4-1.3-5.6-1.3c-2.2,0-4.1,0.4-5.7,1.3c-1.6,0.8-2.9,2-3.9,3.4c-1,1.4-1.7,3.1-2.2,4.9c-0.5,1.9-0.7,3.8-0.7,5.8
		c0,1.9,0.2,3.8,0.6,5.7c0.4,1.9,1,3.6,2,5.2c0.9,1.6,2.2,2.8,3.7,3.8c1.5,1,3.4,1.4,5.7,1.4S234.6,296.2,236.2,295.2z"/>
	<path d="M265.2,260v8.9h0.2c1.7-3.4,3.8-6,6.2-7.6c2.5-1.6,5.6-2.4,9.3-2.3v7.4c-2.8,0-5.2,0.4-7.1,1.1c-2,0.8-3.5,1.9-4.7,3.4
		c-1.2,1.5-2.1,3.3-2.6,5.4c-0.5,2.1-0.8,4.5-0.8,7.2v18.8h-7V260H265.2z"/>
	<path d="M322.2,302.1c-1.2,0.7-2.9,1.1-5,1.1c-1.8,0-3.2-0.5-4.3-1.5c-1.1-1-1.6-2.7-1.6-4.9c-1.9,2.3-4.1,3.9-6.7,4.9
		c-2.5,1-5.3,1.5-8.2,1.5c-1.9,0-3.7-0.2-5.4-0.7s-3.2-1.1-4.5-2c-1.3-0.9-2.2-2.1-3-3.6c-0.7-1.5-1.1-3.3-1.1-5.4
		c0-2.4,0.4-4.4,1.2-5.9c0.8-1.5,1.9-2.8,3.2-3.7c1.3-1,2.9-1.7,4.6-2.2c1.7-0.5,3.5-0.9,5.3-1.2c1.9-0.4,3.7-0.7,5.4-0.9
		c1.7-0.2,3.2-0.5,4.5-0.8c1.3-0.4,2.3-0.9,3.1-1.6c0.8-0.7,1.1-1.7,1.1-3c0-1.5-0.3-2.8-0.9-3.7c-0.6-0.9-1.3-1.6-2.2-2.1
		c-0.9-0.5-1.9-0.8-3-1c-1.1-0.2-2.2-0.2-3.3-0.2c-2.9,0-5.4,0.6-7.4,1.7c-2,1.1-3,3.2-3.2,6.3h-7c0.1-2.6,0.7-4.8,1.6-6.6
		c1-1.8,2.3-3.3,3.9-4.4c1.6-1.1,3.5-1.9,5.6-2.4c2.1-0.5,4.3-0.7,6.7-0.7c1.9,0,3.8,0.1,5.7,0.4c1.9,0.3,3.6,0.8,5.1,1.7
		c1.5,0.8,2.8,2,3.7,3.6c0.9,1.5,1.4,3.5,1.4,6v21.7c0,1.6,0.1,2.8,0.3,3.6c0.2,0.8,0.8,1.1,1.9,1.1c0.6,0,1.3-0.1,2.1-0.3V302.1z
		 M310.9,280.5c-0.9,0.7-2,1.1-3.4,1.4c-1.4,0.3-2.9,0.5-4.5,0.7c-1.6,0.2-3.1,0.4-4.7,0.7c-1.6,0.2-3,0.6-4.3,1.2
		c-1.3,0.5-2.3,1.3-3.1,2.3c-0.8,1-1.2,2.4-1.2,4.1c0,1.1,0.2,2.1,0.7,2.9c0.5,0.8,1.1,1.4,1.8,1.9s1.6,0.8,2.6,1.1
		c1,0.2,2,0.3,3.1,0.3c2.3,0,4.3-0.3,5.9-0.9s3-1.4,4-2.4c1-0.9,1.8-2,2.3-3.1c0.5-1.1,0.7-2.2,0.7-3.1V280.5z"/>
	<path d="M345.4,260v6.1h-8.4v26.3c0,0.8,0.1,1.5,0.2,2c0.1,0.5,0.4,0.9,0.8,1.1c0.4,0.3,0.9,0.4,1.6,0.5c0.7,0.1,1.6,0.1,2.7,0.1
		h3.2v6.1h-5.3c-1.8,0-3.3-0.1-4.6-0.4s-2.3-0.7-3.1-1.3c-0.8-0.7-1.4-1.6-1.8-2.8c-0.4-1.2-0.6-2.8-0.6-4.7v-26.9h-7.2V260h7.2
		v-12.7h7V260H345.4z"/>
	<path d="M352.1,252.4v-8.5h7v8.5H352.1z M359,260v42.3h-7V260H359z"/>
	<path d="M367.5,272.5c0.9-2.7,2.2-5,3.9-7c1.7-2,3.9-3.6,6.5-4.7c2.6-1.1,5.5-1.7,8.8-1.7c3.4,0,6.3,0.6,8.9,1.7
		c2.5,1.1,4.7,2.7,6.4,4.7c1.7,2,3.1,4.3,3.9,7c0.9,2.7,1.3,5.6,1.3,8.7c0,3.1-0.4,6-1.3,8.7c-0.9,2.7-2.2,5-3.9,7
		c-1.7,2-3.9,3.5-6.4,4.7c-2.5,1.1-5.5,1.7-8.9,1.7c-3.3,0-6.3-0.6-8.8-1.7c-2.6-1.1-4.7-2.7-6.5-4.7c-1.7-2-3.1-4.3-3.9-7
		c-0.9-2.7-1.3-5.6-1.3-8.7C366.1,278.1,366.6,275.2,367.5,272.5z M374.5,288c0.7,2,1.6,3.7,2.8,5c1.2,1.3,2.6,2.4,4.2,3.1
		c1.6,0.7,3.3,1.1,5.1,1.1c1.8,0,3.5-0.4,5.1-1.1c1.6-0.7,3-1.7,4.2-3.1c1.2-1.3,2.1-3,2.8-5c0.7-2,1-4.3,1-6.8c0-2.6-0.3-4.8-1-6.8
		c-0.7-2-1.6-3.7-2.8-5c-1.2-1.4-2.6-2.4-4.2-3.1c-1.6-0.7-3.3-1.1-5.1-1.1c-1.8,0-3.5,0.4-5.1,1.1c-1.6,0.7-3,1.7-4.2,3.1
		c-1.2,1.4-2.1,3-2.8,5c-0.7,2-1,4.3-1,6.8C373.5,283.8,373.8,286,374.5,288z"/>
	<path d="M420.5,260v6.7h0.2c2.9-5.1,7.5-7.7,13.7-7.7c2.8,0,5.1,0.4,7,1.1c1.9,0.8,3.4,1.8,4.5,3.2c1.1,1.4,1.9,3,2.4,4.9
		c0.5,1.9,0.7,4,0.7,6.3v27.8h-7v-28.6c0-2.6-0.8-4.7-2.3-6.2c-1.5-1.5-3.6-2.3-6.3-2.3c-2.1,0-4,0.3-5.5,1
		c-1.6,0.7-2.9,1.6-3.9,2.8c-1,1.2-1.8,2.6-2.3,4.2c-0.5,1.6-0.8,3.4-0.8,5.3v23.9h-7V260H420.5z"/>
</g>
</svg>
